<?xml version="1.0" encoding="UTF-8"?>
<svg xmlns="http://www.w3.org/2000/svg" viewBox="0 0 288 144">
  <defs>
    <style>
      .cls-1, .cls-2, .cls-3, .cls-4, .cls-5, .cls-6, .cls-7, .cls-8, .cls-9, .cls-10, .cls-11, .cls-12, .cls-13, .cls-14, .cls-15, .cls-16, .cls-17, .cls-18 {
        stroke-linecap: round;
        stroke-linejoin: round;
      }

      .cls-1, .cls-2, .cls-3, .cls-5, .cls-6, .cls-19, .cls-7, .cls-8, .cls-9, .cls-20, .cls-12, .cls-13, .cls-14, .cls-15, .cls-16, .cls-17, .cls-18 {
        stroke: #333;
      }

      .cls-1, .cls-2, .cls-5, .cls-20, .cls-15 {
        stroke-width: 3px;
      }

      .cls-1, .cls-19, .cls-8, .cls-16 {
        fill: none;
      }

      .cls-2, .cls-20 {
        fill: #ffdfbb;
      }

      .cls-3, .cls-6, .cls-10, .cls-11, .cls-13, .cls-16, .cls-17, .cls-18 {
        stroke-width: 2px;
      }

      .cls-3, .cls-15 {
        fill: #82633f;
      }

      .cls-4 {
        fill: #515151;
        stroke: #b2b2b2;
      }

      .cls-5 {
        fill: #fffdf8;
      }

      .cls-21 {
        fill: #333;
      }

      .cls-21, .cls-8 {
        opacity: .5;
      }

      .cls-22 {
        fill: #fff;
      }

      .cls-22, .cls-23 {
        opacity: .3;
      }

      .cls-6, .cls-9 {
        fill: #b24d4d;
      }

      .cls-19 {
        stroke-width: 1.5px;
      }

      .cls-19, .cls-20 {
        stroke-miterlimit: 10;
      }

      .cls-7, .cls-24, .cls-13 {
        fill: #e0e0e0;
      }

      .cls-25 {
        fill: #fbfdff;
      }

      .cls-26 {
        opacity: .2;
      }

      .cls-10 {
        fill: #b2b2b2;
      }

      .cls-10, .cls-11 {
        stroke: #515151;
      }

      .cls-11 {
        fill: #686868;
      }

      .cls-12 {
        fill: #5b3d0c;
      }

      .cls-14, .cls-17 {
        fill: #e2c7a1;
      }

      .cls-18 {
        fill: #bf736b;
      }
    </style>
  </defs>
  <g id="shadow">
    <ellipse class="cls-23" cx="71.48" cy="126" rx="27" ry="9"/>
    <ellipse class="cls-23" cx="216.02" cy="126" rx="27" ry="9"/>
  </g>
  <g id="N_F_Leg" data-name="N F Leg">
    <path class="cls-15" d="M74.25,105.51c.63-.84,2.15-2.58,4.66-3.21,1.87-.47,5.34-.6,6.49,1.44,.53,.95,.38,2.03,.22,2.67-.75,.51-2.42,1.49-4.75,1.59-3.63,.15-6.09-2-6.62-2.48Z"/>
    <path class="cls-15" d="M70.28,106c-.49-.93-1.72-2.89-4.09-3.91-1.77-.76-5.18-1.44-6.63,.4-.68,.85-.69,1.95-.64,2.6,.66,.62,2.16,1.86,4.43,2.32,3.56,.72,6.33-1.01,6.93-1.4Z"/>
  </g>
  <g id="N_F_headback" data-name="N F headback">
    <path class="cls-18" d="M69.56,16.38c-4.46,.06-7.65,1.81-8.88,2.5-1.33,.75-2.51,1.71-4.88,3.62-1.98,1.6-3.55,3.01-4.62,4,.18,.33,.74,1.24,1.88,1.75,1.69,.75,3.28-.01,3.5-.12-.92,1-2.31,2.28-4.25,3.38-1.29,.73-2.5,1.19-3.5,1.5,.16,.41,.82,1.9,2.5,2.75,2.14,1.09,4.2,.25,4.5,.12-.33,.59-.84,1.36-1.62,2.12-.92,.9-1.84,1.43-2.5,1.75,.36,.34,1.25,1.08,2.62,1.38,1.25,.27,2.27,.02,2.75-.12,0,.45-.04,1.68-.88,2.88-1.1,1.57-2.76,1.93-3.12,2,.52,.25,1.59,.68,3,.62,1.29-.05,2.25-.48,2.75-.75-.27,.88-.82,2.27-2,3.62-.69,.8-1.41,1.36-2,1.75,.96-.08,2.28-.29,3.75-.88,1.15-.46,2.07-1.02,2.75-1.5,.14,.48,.36,1.53,0,2.75-.2,.67-.5,1.17-.75,1.5,.69-.31,1.66-.85,2.62-1.75,.78-.73,1.31-1.47,1.66-2.05,.09,.75,.27,1.69,.63,2.71,.28,.79,.61,1.46,.92,2,.39-.34,.95-.91,1.42-1.75,.48-.86,.67-1.65,.75-2.17,.12,.48,.34,1.1,.75,1.75,.79,1.26,1.84,1.94,2.42,2.25,.2-.3,.61-1.01,.67-2,.06-1.06-.32-1.85-.5-2.17,.62,.48,1.31,1.08,2,1.83,.57,.61,1.03,1.21,1.42,1.75l.33-3.75c.42,.57,.99,1.24,1.75,1.92,.81,.72,1.6,1.23,2.25,1.58-.18-.79-.35-1.63-.5-2.5-.13-.78-.24-1.53-.33-2.25,.47,.49,1.29,1.22,2.5,1.75,1.54,.68,2.93,.71,3.67,.67-.45-.24-1.56-.89-2.33-2.25-.78-1.36-.78-2.66-.75-3.17,.5,.21,1.25,.45,2.17,.5,1.66,.08,2.93-.51,3.5-.83-.6-.12-1.73-.44-2.83-1.33-1.46-1.18-1.99-2.66-2.17-3.25,.37,.19,.97,.44,1.75,.5,1.41,.1,2.46-.51,2.83-.75-.56-.22-1.53-.7-2.42-1.67-1.13-1.24-1.48-2.59-1.6-3.19,.31,.22,.82,.54,1.52,.69,1.21,.28,2.21-.09,2.58-.25-.74-.39-1.87-1.11-2.92-2.33-.87-1.02-1.38-2.03-1.67-2.75,.64,.28,1.54,.6,2.67,.75,1.28,.17,2.35,.05,3.08-.08-1.11-.49-2.57-1.36-3.33-2.92-.7-1.43-.15-2.3-.42-3.75-.59-3.27-4.35-5.18-6.71-6.38-3.89-1.98-7.42-2.01-8.38-2Z"/>
  </g>
  <g id="N_F_Right_Arm" data-name="N F Right Arm">
    <g>
      <path class="cls-5" d="M100.27,70.94c1.01-.72,2.42-.63,3.38-.18,1.26,.59,1.79,1.83,2.29,2.99,.84,1.96,.36,2.59,1.24,3.66,.5,.61,.71,.46,2.51,1.67,1.52,1.02,2.28,1.52,2.62,2.11,.78,1.33,.69,3.55-.66,4.97-1.51,1.58-3.98,1.3-5.38,.69-1.67-.72-2.49-2.16-3.08-3.19-1.03-1.81-.57-2.32-1.63-4.41-1.07-2.11-1.86-1.99-2.31-3.54-.39-1.32-.5-3.69,1.02-4.78Z"/>
      <path class="cls-2" d="M111.89,80.65c-1.21-1.19-3.57-1.46-4.34-.38-.53,.75-.11,1.9,.02,2.21-.29,0-1.14,.01-1.76,.61-.91,.88-.79,2.51-.15,3.34,1.16,1.5,4.85,1.35,6.39-.77,1-1.39,1.17-3.7-.16-5.01Z"/>
      <path class="cls-1" d="M100.27,70.94c1.01-.72,2.42-.63,3.38-.18,1.26,.59,1.79,1.83,2.29,2.99,.84,1.96,.36,2.59,1.24,3.66,.5,.61,.71,.46,2.51,1.67,1.52,1.02,2.28,1.52,2.62,2.11,.78,1.33,.69,3.55-.66,4.97-1.51,1.58-3.98,1.3-5.38,.69-1.67-.72-2.49-2.16-3.08-3.19-1.03-1.81-.57-2.32-1.63-4.41-1.07-2.11-1.86-1.99-2.31-3.54-.39-1.32-.5-3.69,1.02-4.78Z"/>
      <path class="cls-3" d="M106.87,76.97c.13-.88,.26-1.76,.39-2.64-.76,.01-2.65,.15-4.56,1.43-1.95,1.3-2.81,3.04-3.1,3.74,.83,.33,1.66,.65,2.49,.98,.2-.48,.73-1.55,1.91-2.41,1.18-.87,2.37-1.05,2.89-1.09Z"/>
      <path class="cls-3" d="M102.08,80.48c.05,.62,.24,1.79,1.01,2.98,.51,.8,1.11,1.34,1.54,1.67,.04-.25,.22-1.31,1.18-2.03,.58-.44,1.18-.55,1.49-.59-.05-.22-.23-1.06,.23-1.89,.47-.84,1.4-1.35,2.43-1.34-1.03-.76-2.06-1.53-3.08-2.29-.51,.05-1.7,.23-2.89,1.09-1.18,.86-1.71,1.94-1.91,2.41Z"/>
      <path class="cls-21" d="M99.99,70.22c.45,1.18,1.09,2.68,1.99,4.33,.64,1.16,1.25,2.07,2.45,3.83,3.1,4.56,3.82,5,4.48,5.23,.67,.24,1.97,.51,3.95-.28-.08,.26-.96,2.98-3.5,3.73-2.69,.79-4.97-1.31-5.35-1.66-.98-.9-.83-1.32-2.76-5.25-1.51-3.08-1.83-3.3-2.06-4.45-.42-2.2,.22-4.18,.81-5.47Z"/>
    </g>
  </g>
  <g id="N_F_Armour" data-name="N F Armour">
    <g>
      <path class="cls-13" d="M61.08,70.39c.28-.51,1.03-1.85,2.58-2.62,1.05-.52,2.17-.65,6.52,.26,4.34,.9,6.53,1.38,7.73,2.58,1.58,1.58,2.03,3.61,2.18,4.78-.08,.83-.17,1.67-.25,2.5,.03,3.01,.06,6.03,.08,9.04-1.54,.4-3.08,.81-4.62,1.21-4-.44-8-.89-12-1.33-.39-1.97-.78-3.94-1.17-5.92-.33-.57-3.5-6.12-1.04-10.5Z"/>
      <path class="cls-26" d="M77.54,89.82c-.39,.07-.78,.13-1.16,.2,.49,1.17,.97,2.33,1.46,3.5,.21-.12,.42-.25,.62-.38-.17-.56-.33-1.12-.5-1.69-.14-.54-.28-1.09-.42-1.63Z"/>
      <path class="cls-26" d="M78.4,91.65c.73-.23,1.46-.47,2.19-.7,0,.24,0,.47,.01,.71-.68,.24-1.37,.48-2.05,.72-.05-.24-.1-.49-.15-.73Z"/>
      <path class="cls-17" d="M63.29,86.81c-.45,2.3-.89,4.6-1.34,6.9,3.09,.5,6.19,.99,9.28,1.49,1.19-1.29,2.38-2.58,3.56-3.88,.73,1.11,1.46,2.21,2.18,3.32l4.99-1.51c-.68-2.07-1.37-4.14-2.05-6.2-1.54,.4-3.08,.81-4.62,1.21l-12-1.33Z"/>
      <path class="cls-3" d="M62.6,83.3c2.23,.6,5.22,1.17,8.78,1.21,3.27,.03,6.06-.39,8.19-.88,.11,1.1,.23,2.2,.34,3.29-2.04,.4-4.47,.72-7.22,.77-3.7,.07-6.9-.36-9.41-.89-.23-1.17-.46-2.34-.69-3.5Z"/>
      <path class="cls-6" d="M62.78,68.32c1.2,1.26,2.87,3.34,3.91,6.29,.82,2.31,.92,4.29,1.08,8.17,.09,2.07,.12,4.89-.08,8.25,1.12,.32,2.61,.62,4.38,.68,2.11,.06,3.87-.26,5.12-.59-.55-3.07-.8-5.73-.92-7.83-.11-2.02-.26-4.79,.1-8.4,.2-1.99,.49-3.66,.74-4.87-1.36-.8-3.91-2.06-7.35-2.4-3.06-.3-5.54,.26-7,.71Z"/>
      <path class="cls-26" d="M62.74,69.82c.95,1.13,2.28,2.99,3.12,5.54,.44,1.33,.7,2.7,.88,6.88,.09,2.19,.16,5.15,.08,8.71-.33-.11-.67-.22-1-.33,.02-3.51-.23-6.55-.54-9-.37-2.9-.85-5.27-1.21-6.83-.44-1.93-.91-3.6-1.33-4.96Z"/>
      <path class="cls-26" d="M62.74,69.74c-.32,.33-.77,.86-1.11,1.6-.54,1.16-.53,2.2-.52,2.9,.05,2.8,1.43,5.42,1.94,6.31,.35,1.84,.71,3.68,1.06,5.52v1.96c-.33,1.64-.67,3.28-1,4.92,1.67,.25,3.33,.5,5,.75l.33-1.5c-.46-.11-.92-.22-1.38-.33l-.42-.67c.13-1.58,.26-3.86,.25-6.62-.01-4.04-.03-6.11-.77-8.54-.46-1.5-1.37-3.8-3.39-6.29Z"/>
      <path class="cls-7" d="M63.9,66.78c1.07,.54,2.27,1.08,3.59,1.59,1.45,.56,2.82,.99,4.08,1.33,0,.38-.02,1.02-.31,1.75-.26,.65-.63,1.11-.88,1.38-1.21-.69-2.49-1.47-3.81-2.38-1.36-.93-2.59-1.85-3.69-2.75,.34-.31,.68-.61,1.02-.92Z"/>
      <path class="cls-7" d="M71.57,69.7c.28,.47,.63,1.01,1.09,1.56,.48,.58,.95,1.04,1.38,1.41,.42-.51,.83-1.02,1.25-1.53,.61-.75,1.21-1.5,1.81-2.25-.4-.28-.79-.56-1.19-.84-.33,.34-.88,.82-1.68,1.19-1.12,.51-2.14,.51-2.66,.47Z"/>
      <path class="cls-24" d="M71.24,76.63c-.23,0-.45,.2-.47,.48-.21-.49,0-1.01,.37-1.18,.26-.12,.6-.06,.86,.14,.02-.02,.37-.32,.74-.21,.36,.11,.61,.59,.47,1.08-.05-.18-.2-.3-.37-.3-.14,0-.28,.07-.35,.2l.09,2.65,1.08-.04c.12-.04,.2-.14,.2-.24,0-.14-.13-.27-.3-.26,.29-.16,.65-.08,.83,.18,.17,.24,.14,.59-.08,.8,.03,.03,.32,.32,.26,.71-.06,.37-.43,.67-.88,.66,.16-.12,.25-.32,.21-.51-.03-.19-.17-.35-.35-.41l-.95,.03,.1,2.91c.04,.06,.13,.18,.27,.2,.2,.03,.46-.19,.53-.57,.13,.54-.09,1.04-.46,1.21-.29,.13-.59,.02-.68-.02-.1,.05-.36,.17-.64,.09-.41-.11-.7-.6-.66-1.17,.16,.38,.46,.56,.65,.5,.03,0,.13-.05,.2-.24l-.1-2.91-1.24,.04s-.23,.14-.24,.35c0,.22,.2,.45,.5,.47-.21,.31-.63,.39-.94,.2-.32-.2-.43-.63-.22-.96-.3-.25-.38-.68-.2-1.01,.16-.28,.49-.44,.83-.39-.11,.05-.18,.17-.16,.28,.02,.13,.15,.24,.3,.22l1.33-.05-.09-2.67c-.08-.17-.24-.28-.41-.28Z"/>
    </g>
  </g>
  <g id="N_F_head" data-name="N F head">
    <g>
      <path class="cls-20" d="M60.91,47.04c2.08,1.87,4.76,2.45,6.54,2.84,1.31,.28,3.99,.83,7.26,.05,2.06-.5,5.35-1.29,6.75-4.05,.26-.51,1.39-2.75,.72-4.74-.15-.46-.43-.99-.38-1.79,.05-.84,.4-1.17,.64-2.17,.14-.6,.17-1.09,.15-2.03-.11-4.86-.16-7.29-.87-8.75-1.52-3.14-4.74-4.43-6.08-4.97-1.36-.55-6.07-2.18-10.6,.16-4.6,2.38-5.87,7.25-6.61,10.1-.31,1.19-2.76,10.65,2.48,15.37Z"/>
      <g>
        <path class="cls-9" d="M62.15,35.22c.55-1.6,2.41-2.57,4.14-2.34,1.57,.21,2.74,1.36,3.21,2.64,.14,.39,.69,2.07-.33,3.45-.93,1.26-2.59,1.48-3.72,1.24-2.1-.44-4.05-2.84-3.31-4.99Z"/>
        <path class="cls-25" d="M66.1,33.22c.17,.07,.57,.26,.88,.69,.34,.47,.37,.95,.38,1.13-.45,.29-.89,.58-1.34,.88l1.68,.96c.05,.21,.22,1.04-.25,1.93-.46,.88-1.25,1.21-1.44,1.29,.13,.01,1.95,.17,3.08-1.26,.68-.86,.69-1.92,.69-2.51,0-.53,.01-1.12-.28-1.66-.81-1.52-3.26-1.45-3.39-1.44Z"/>
        <path class="cls-19" d="M62.15,35.22c.55-1.6,2.41-2.57,4.14-2.34,1.57,.21,2.74,1.36,3.21,2.64,.14,.39,.69,2.07-.33,3.45-.93,1.26-2.59,1.48-3.72,1.24-2.1-.44-4.05-2.84-3.31-4.99Z"/>
        <path class="cls-9" d="M75.74,35.76c.5-1.46,2.21-2.35,3.79-2.14,1.43,.19,2.51,1.25,2.94,2.41,.13,.36,.63,1.9-.3,3.16-.85,1.15-2.37,1.36-3.4,1.14-1.92-.41-3.7-2.6-3.02-4.57Z"/>
        <path class="cls-25" d="M79.15,33.94c.16,.06,.54,.24,.83,.65,.32,.45,.35,.9,.36,1.07-.42,.28-.85,.55-1.27,.83l1.59,.91c.05,.2,.21,.99-.23,1.82-.44,.83-1.18,1.14-1.37,1.22,.12,.01,1.85,.16,2.91-1.19,.65-.82,.65-1.82,.65-2.38,0-.5,0-1.06-.27-1.57-.77-1.44-3.08-1.37-3.21-1.37Z"/>
        <path class="cls-19" d="M75.74,35.76c.5-1.46,2.21-2.35,3.79-2.14,1.43,.19,2.51,1.25,2.94,2.41,.13,.36,.63,1.9-.3,3.16-.85,1.15-2.37,1.36-3.4,1.14-1.92-.41-3.7-2.6-3.02-4.57Z"/>
      </g>
      <path class="cls-12" d="M72.98,42.12c-1.9,0-2.4,1.88-4.71,2.21-1.09,.15-2.02-.12-2.58-.33,1.37,1.03,2.54,1.29,3.46,1.25,1.52-.07,1.81-.92,3.53-1.03,1.67-.11,2.13,.64,3.72,.45,1.14-.14,2.02-.66,2.58-1.08-.59,0-1.47-.03-2.5-.25-2.18-.47-2.31-1.21-3.5-1.21Z"/>
      <g>
        <path class="cls-17" d="M56.7,29.7c-1.76,1.37-5.46-.99-7.25-2.25-1.14-.81-4.05-3.18-4.25-6.75-.02-.44-.17-3.62,1.75-4.75,1.15-.68,2.53-.32,3.88,.12,5.21,1.72,8.92,4.41,9.38,4.75,9.18,6.78,8.39,6.61,9.62,7.12,2.34,.98,8.16,3.41,13.12,1.25,1.19-.51,3.22-1.68,5.88-1.38,.75,.09,2.17,.27,2.62,1.25,.45,.98-.25,2.29-1,3-1.31,1.25-3.26,1.17-4.12,1.12-12.09-.66-16-1.62-16-1.62-3.47-.85-7.8-2.02-12.75-3.62-.1,.66-.34,1.33-.88,1.75Z"/>
        <path class="cls-17" d="M56.84,18.72c.56-1.82,1.18-3.27,1.67-4.29,1.79-3.73,3.02-4.33,3.41-4.5,.87-.38,1.62-.34,2.41-.31,2.62,.11,4.84,1.41,7.59,3.06,1.26,.76,2.24,1.44,3.75,1.5,.75,.03,.69-.13,2.03-.25,1-.09,2.77-.15,4.75,.38,1.41,.38,1.82,.75,1.94,.88,.71,.71,.85,1.67,.91,2.28,.32,3.34-.24,10.43-.27,10.86-2.09,1.17-3.96,1.54-5.1,1.68-2.51,.3-4.47-.2-6.09-.61-1.99-.51-3.57-1.2-4.65-1.75-2.43-2.04-5.14-4.13-8.14-6.18-1.42-.98-2.82-1.88-4.2-2.73Z"/>
        <path class="cls-14" d="M70.61,14.45c.31,.31,1.07,.96,2.25,1.25,1.12,.27,2.04,.08,2.46-.04"/>
        <path class="cls-26" d="M57.19,28.45c-.19,.37-.47,.92-.88,1.19-.46,.3-1.09,.22-2.32-.24-1.13-.43-2.53-.97-4.24-2.32-1.16-.92-1.84-1.71-2.48-2.46-1.19-1.39-1.35-1.95-1.4-2.36-.09-.71,.04-1.81,.75-2.31,.78-.55,1.92-.17,2.52,.04,4.22,1.52,10.15,5.28,14.17,7.33,1.73,.89,3.8,1.93,6.75,2.75,3.64,1.01,6.61,1.11,8.88,1.19,3.06,.1,4.59,.16,5.91-.41,.28-.12,1.2-.4,3.05-.95,.6-.18,1.44-.42,2.2-.05,.16,.08,.52,.26,.6,.61,.02,.09,.07,.35-.29,.86-.66,.93-1.67,1.25-1.78,1.28-.97,.29-1.82,.11-2.01,.07-2.59-.53-5.08,.3-13.4-1.1-3.93-.66-9.33-1.85-15.66-4.09-.07,.24-.18,.59-.38,.97Z"/>
        <path class="cls-26" d="M83.78,15.33c-2.58-1.17-3.91-1.31-4.66-1.19-.11,.02-.93,.16-2.12,.36-.52,.09-.78,.13-.88,.14-1.27,.18-2.57-.56-4.5-1.69-2.88-1.68-3.03-1.79-3.69-2.06-.51-.21-1.68-.67-3.25-.88-1.04-.14-1.67-.21-2.38,.06-1.22,.47-1.79,1.62-1.99,2.07-.54,.93-1.1,1.97-1.64,3.12-.52,1.12-.95,2.19-1.31,3.19,.56,.45,1.21,.91,1.94,1.38,.66,.41,1.29,.77,1.88,1.06,.46-1.86,.99-3.48,1.5-4.81,1.26-3.31,1.91-3.72,2.38-3.88,.85-.28,1.76,.19,3.56,1.12,2.4,1.24,2.28,1.78,3.74,2.22,1.61,.5,3.16,.28,4.62,.07,1.36-.19,1.54-.4,2.71-.54,1.7-.2,3.13,.02,4.09,.25Z"/>
        <path class="cls-22" d="M80.12,15.37c.27-.09,1.65,.56,2.46,1.42,.68,.72,.76,1.38,.79,1.92,.14,2.17-.35,4.43-.63,4.42-.21,0,.15-1.26-.48-3.46-.26-.89-.47-1.66-1.11-2.67-.64-1.01-1.25-1.55-1.03-1.62Z"/>
        <line class="cls-16" x1="57.58" y1="27.95" x2="50.51" y2="25.52"/>
        <g>
          <path class="cls-6" d="M68.33,23.81l.94-2.25c-.52-.08-1.04-.17-1.56-.25,.04-.9,.08-1.79,.12-2.69h-1.5c.01-.51-.03-1.58-.62-2.75-.6-1.18-1.45-1.84-1.88-2.12-.33,.27-.67,.54-1,.81-.6-1-1.21-2-1.81-3l-1.12,.38c-.94-.55-2.34-1.26-4.12-1.81-2.27-.7-5.7-1.75-9.5-.38-3.92,1.42-5.9,4.57-6.5,5.62-2.22,3.92-1.63,7.72-1.44,8.75,.05-.81,.24-2.08,.94-3.44,.38-.74,.81-1.32,1.19-1.75-.1,.75-.21,1.5-.31,2.25,.28-.94,.89-2.55,2.25-4.12,.31-.36,1.94-2.2,4.62-3.19,4.77-1.76,9.18,.53,9.94,.94,.02,.5,.04,1,.06,1.5,1.48,.6,2.96,1.21,4.44,1.81-.08,.42-.17,.83-.25,1.25,.7,.26,1.87,.79,3,1.88,1.06,1.02,1.64,2.08,1.94,2.75,.73-.06,1.46-.12,2.19-.19Z"/>
          <path class="cls-8" d="M67.35,23.9c-.59-1.63-1.75-4.21-4.02-6.77-.61-.69-3.28-3.61-7.88-5.56-3.76-1.59-7.14-1.83-9.19-1.81"/>
          <path class="cls-26" d="M57.33,14.43c-1.54-.91-3.82-2.03-6.75-2.72-2.42-.57-4.55-.67-6.16-.62-.91,.57-2.1,1.48-3.19,2.88-2.14,2.74-2.53,5.66-2.62,6.97,.18-.42,.45-.93,.83-1.47,.34-.48,.68-.86,.99-1.16,.01,.21,.02,.42,.03,.63,.66-1.21,1.89-3,4-4.32,5.65-3.55,12.28-.47,12.88-.19Z"/>
        </g>
        <g>
          <path class="cls-6" d="M56.84,18.72c3.18,1.65,7.55,3.52,12.97,4.74,6.2,1.4,11.58,1.45,15.44,1.19,.17,.25,.51,.81,.56,1.59,.07,1.2-.62,2.03-.78,2.22-2,1.04-3.78,1.4-4.97,1.53-2.38,.27-4.22-.14-5.86-.51-1.95-.44-3.61-1.07-4.92-1.68-1.58-1.31-3.27-2.64-5.05-3.97-2.53-1.89-5.01-3.59-7.39-5.11Z"/>
          <path class="cls-9" d="M71.61,25.74c1.89,.39,4.09,.72,6.54,.88,2.76,.17,5.23,.08,7.33-.12"/>
          <path class="cls-9" d="M78.54,28.2c-1.71,0-3.69-.11-5.88-.46-1.72-.27-3.27-.64-4.62-1.04"/>
        </g>
      </g>
      <path class="cls-26" d="M60.39,29.67c4.4,1.96,7.9,2.74,10.25,3.08,1.3,.19,3.1,.38,3.92,.46,2.9,.3,5.31,.45,6.96,.54,.17,1,.34,2,.51,3-2.91-.08-6.15-.32-9.67-.83-3.65-.53-6.94-1.26-9.83-2.04-.3,1.22-.64,3.13-.46,5.46,.12,1.53,.22,2.77,.96,4.17,1.14,2.15,3.05,3.21,4.38,3.96,1.27,.71,2.43,1.11,3.25,1.33-.93,.11-3.84,.32-6.79-1.46-2.64-1.6-3.78-3.86-4-4.33-1.17-2.45-.95-4.69-.67-7.62,.24-2.46,.78-4.43,1.21-5.71Z"/>
      <path class="cls-26" d="M57.28,30.66c-.46,.1-.92,.21-1.38,.31-.23,.73-.49,1.73-.66,2.94-.08,.57-.36,2.75,.06,5.72,.32,2.27,.54,3.8,1.58,5.5,1.01,1.65,2.32,2.66,3.17,3.21-1.03-1.42-2.54-3.89-3.29-7.29-1.05-4.71-.07-8.59,.51-10.39Z"/>
    </g>
  </g>
  <g id="N_F_Sword" data-name="N F Sword">
    <g>
      <g>
        <path class="cls-10" d="M139.34,117.23c3,.02,6,.03,9,.05-.12-2.37-2.1-4.26-4.48-4.27s-4.37,1.86-4.52,4.23Z"/>
        <line class="cls-11" x1="143.86" y1="113.01" x2="144.07" y2="72.3"/>
      </g>
      <line class="cls-4" x1="143.47" y1="111.68" x2="143.67" y2="71.97"/>
    </g>
  </g>
  <g id="N_B_Right_Arm" data-name="N B Right Arm">
    <g>
      <path class="cls-5" d="M41.39,70.94c.41-.26,1.97-1.15,3.3-.56,1.38,.62,2.18,2.73,1.5,5-.38,.35-.9,.87-1.44,1.56-.62,.8-1.16,1.5-1.44,2.5-.22,.78-.17,1.36-.07,2.49,.09,1.07,.33,2.36,.85,3.63,.44,1.09,.71,1.37,.97,2.41,.22,.89,.45,1.83,.01,2.37-.4,.49-1.17,.43-1.67,.19-.86-.42-1.08-1.47-1.11-1.58,.12,.25,.38,.88,.3,1.69,0,.1-.16,1.48-1,1.92-.83,.44-1.8-.31-2.56-.91-1.46-1.13-2.09-2.65-2.22-2.95-.66-1.62-.61-3.01-.55-4.26,.03-.6,.1-1.43,1.08-5.12,.9-3.39,1.36-4.65,2.08-5.99,.72-1.34,1.26-1.95,1.95-2.38Z"/>
      <path class="cls-3" d="M43.59,79.46c-.49-.31-1.88-1.09-3.75-.94-1.14,.1-2,.5-2.49,.79-.37,.96-.74,2.21-.94,3.7-.25,1.9-.13,3.52,.05,4.7,.49-.62,1.45-1.67,3-2.44,1.77-.89,3.4-.96,4.21-.93-.19-.55-.42-1.38-.44-2.41-.02-1.05,.17-1.9,.35-2.46Z"/>
      <path class="cls-2" d="M36.83,88.69c.3-.62,1.12-2.15,2.78-3.16,1.84-1.12,3.56-.92,4.15-.82,.4,.5,1.94,2.52,1.56,4.64-.06,.32-.16,.86-.54,1.14-.6,.44-1.67,.06-2.66-1.01,.08,.17,.37,.82,.21,1.64-.03,.17-.15,.8-.55,1.15-.98,.84-2.85-.61-3.06-.77-1.1-.87-1.63-2.07-1.89-2.81Z"/>
      <path class="cls-3" d="M45.15,78.82c-.55-.45-2.07-1.57-4.33-1.75-2.61-.21-4.49,.96-5.04,1.33,.14,.9,.27,1.8,.41,2.7,.49-.35,2.11-1.42,4.34-1.27,1.37,.09,2.39,.61,2.94,.94l1.69-1.96Z"/>
      <path class="cls-21" d="M41.14,70.87c.35-.18,1.21-.58,2.35-.5,1.03,.08,1.77,.5,2.1,.72-1.58,1.52-2.64,3-3.32,4.09-.6,.97-1.37,2.24-1.9,4.1-.17,.6-.31,1.26-.4,1.98-.22,1.73-.65,5.22,1.01,7.25,.52,.63,1.34,1.25,1.36,2.3,.01,.51-.17,1.12-.57,1.45-.58,.48-1.36,.18-1.78,.02-1.82-.7-2.78-2.71-3-3.2-1.04-2.33-.77-4.53-.58-6.08,.2-1.61,.61-2.89,.92-3.73l-.48,.28c.02-.25,.04-.5,.06-.75,.27-.17,.54-.34,.81-.51,.17-.43,.34-.85,.51-1.28,.9-2.19,1.88-4.24,2.89-6.15Z"/>
    </g>
    <g>
      <path class="cls-5" d="M185.39,70.94c.41-.26,1.97-1.15,3.3-.56,1.38,.62,2.18,2.73,1.5,5-.38,.35-.9,.87-1.44,1.56-.62,.8-1.16,1.5-1.44,2.5-.22,.78-.17,1.36-.07,2.49,.09,1.07,.33,2.36,.85,3.63,.44,1.09,.71,1.37,.97,2.41,.22,.89,.45,1.83,.01,2.37-.4,.49-1.17,.43-1.67,.19-.86-.42-1.08-1.47-1.11-1.58,.12,.25,.38,.88,.3,1.69,0,.1-.16,1.48-1,1.92-.83,.44-1.8-.31-2.56-.91-1.46-1.13-2.09-2.65-2.22-2.95-.66-1.62-.61-3.01-.55-4.26,.03-.6,.1-1.43,1.08-5.12,.9-3.39,1.36-4.65,2.08-5.99,.72-1.34,1.26-1.95,1.95-2.38Z"/>
      <path class="cls-3" d="M187.59,79.46c-.49-.31-1.88-1.09-3.75-.94-1.14,.1-2,.5-2.49,.79-.37,.96-.74,2.21-.94,3.7-.25,1.9-.13,3.52,.05,4.7,.49-.62,1.45-1.67,3-2.44,1.77-.89,3.4-.96,4.21-.93-.19-.55-.42-1.38-.44-2.41-.02-1.05,.17-1.9,.35-2.46Z"/>
      <path class="cls-2" d="M180.83,88.69c.3-.62,1.12-2.15,2.78-3.16,1.84-1.12,3.56-.92,4.15-.82,.4,.5,1.94,2.52,1.56,4.64-.06,.32-.16,.86-.54,1.14-.6,.44-1.67,.06-2.66-1.01,.08,.17,.37,.82,.21,1.64-.03,.17-.15,.8-.55,1.15-.98,.84-2.85-.61-3.06-.77-1.1-.87-1.63-2.07-1.89-2.81Z"/>
      <path class="cls-3" d="M189.15,78.82c-.55-.45-2.07-1.57-4.33-1.75-2.61-.21-4.49,.96-5.04,1.33,.14,.9,.27,1.8,.41,2.7,.49-.35,2.11-1.42,4.34-1.27,1.37,.09,2.39,.61,2.94,.94l1.69-1.96Z"/>
      <path class="cls-21" d="M185.14,70.87c.35-.18,1.21-.58,2.35-.5,1.03,.08,1.77,.5,2.1,.72-1.58,1.52-2.64,3-3.32,4.09-.6,.97-1.37,2.24-1.9,4.1-.17,.6-.31,1.26-.4,1.98-.22,1.73-.65,5.22,1.01,7.25,.52,.63,1.34,1.25,1.36,2.3,.01,.51-.17,1.12-.57,1.45-.58,.48-1.36,.18-1.78,.02-1.82-.7-2.78-2.71-3-3.2-1.04-2.33-.77-4.53-.58-6.08,.2-1.61,.61-2.89,.92-3.73l-.48,.28c.02-.25,.04-.5,.06-.75,.27-.17,.54-.34,.81-.51,.17-.43,.34-.85,.51-1.28,.9-2.19,1.88-4.24,2.89-6.15Z"/>
    </g>
  </g>
  <g id="N_B_Leg" data-name="N B Leg">
    <path class="cls-15" d="M218.79,105.51c.63-.84,2.15-2.58,4.66-3.21,1.87-.47,5.34-.6,6.49,1.44,.53,.95,.38,2.03,.22,2.67-.75,.51-2.42,1.49-4.75,1.59-3.63,.15-6.09-2-6.62-2.48Z"/>
    <path class="cls-15" d="M214.83,106c-.49-.93-1.72-2.89-4.09-3.91-1.77-.76-5.18-1.44-6.63,.4-.68,.85-.69,1.95-.64,2.6,.66,.62,2.16,1.86,4.43,2.32,3.56,.72,6.33-1.01,6.93-1.4Z"/>
  </g>
  <g id="N_B_Armour" data-name="N B Armour">
    <g>
      <path class="cls-13" d="M205.62,70.28c.28-.51,1.03-1.85,2.58-2.62,1.05-.52,2.17-.65,6.52,.26,4.34,.9,6.53,1.38,7.73,2.58,1.58,1.58,2.03,3.61,2.18,4.78-.08,.83-.17,1.67-.25,2.5,.03,3.01,.06,6.03,.08,9.04-1.54,.4-3.08,.81-4.62,1.21-4-.44-8-.89-12-1.33-.39-1.97-.78-3.94-1.17-5.92-.33-.57-3.5-6.12-1.04-10.5Z"/>
      <path class="cls-26" d="M222.08,89.71c-.39,.07-.78,.13-1.16,.2,.49,1.17,.97,2.33,1.46,3.5,.21-.12,.42-.25,.62-.38-.17-.56-.33-1.12-.5-1.69-.14-.54-.28-1.09-.42-1.63Z"/>
      <path class="cls-26" d="M222.94,91.54c.73-.23,1.46-.47,2.19-.7,0,.24,0,.47,.01,.71-.68,.24-1.37,.48-2.05,.72-.05-.24-.1-.49-.15-.73Z"/>
      <path class="cls-17" d="M207.83,86.7c-.45,2.3-.89,4.6-1.34,6.9,2.28,.39,4.56,.78,6.84,1.18l1.12-3.47c1.33,1.23,2.67,2.46,4,3.69,2.68-.66,5.37-1.32,8.05-1.98-.68-2.07-1.37-4.14-2.05-6.2-3.43,.29-6.85,.58-10.28,.87-2.11-.33-4.23-.66-6.34-.99Z"/>
      <path class="cls-3" d="M207.14,83.2c2.23,.6,5.22,1.17,8.78,1.21,3.27,.03,6.06-.39,8.19-.88,.11,1.1,.23,2.2,.34,3.29-2.04,.4-4.47,.72-7.22,.77-3.7,.07-6.9-.36-9.41-.89-.23-1.17-.46-2.34-.69-3.5Z"/>
      <path class="cls-6" d="M207.74,67.9c.81,1.43,1.87,3.75,2.03,6.72,.04,.7,.09,2.53-1.33,7.44-.62,2.14-1.56,5.01-2.99,8.35,2.29,.57,5.16,1.07,8.48,1.19,4.3,.15,7.95-.41,10.67-1.04-1.67-1.87-3.79-4.81-5-8.83-.49-1.64-1.15-3.92-.83-6.92,.26-2.49,1.09-4.42,1.71-5.61-2.04-.83-5.1-1.74-8.84-1.7-1.45,.02-2.76,.18-3.9,.39Z"/>
      <path class="cls-7" d="M208.45,66.67c.82,.51,2.03,1.15,3.59,1.59,1.6,.45,2.92,.51,3.58,.52,2.04,.02,3.71-.43,4.84-.85,.4,.28,.79,.56,1.19,.84-.79,.68-2.06,1.61-3.81,2.28-1.59,.61-3.69,1.42-6.03,.66-2.81-.92-4.08-3.49-4.38-4.13,.34-.31,.68-.61,1.02-.92Z"/>
      <path class="cls-26" d="M207.49,69.53c-.27,1.18-.5,2.59-.56,4.19-.11,2.82,.32,5.19,.78,6.91,.45-1.08,1.05-2.9,1.06-5.22,.02-2.69-.77-4.76-1.28-5.88Z"/>
      <path class="cls-26" d="M207.85,91.94c.92,.16,1.88,.3,2.88,.42,.78,.09,1.54,.17,2.27,.23-.08,.22-.15,.43-.23,.65l-5.04-.85c.04-.15,.08-.29,.12-.44Z"/>
      <path class="cls-26" d="M217.33,92.58c1.16-.04,2.44-.15,3.83-.35,1.41-.21,2.7-.49,3.83-.79,.01,.11,.03,.22,.04,.33-1.36,.43-2.95,.82-4.75,1.06-.92,.12-1.79,.2-2.6,.23l-.35-.48Z"/>
      <path class="cls-26" d="M218.46,71.31c-.68,.39-1.76,.89-3.16,1.09-.56,.08-1.75,.24-3.22-.12-.76-.19-1.37-.47-1.78-.69,.23,.7,.52,1.76,.59,3.06,.1,1.71-.21,3.02-.44,3.91-1.11,4.36-3.28,10.22-3.56,11,2.05,.51,4.73,.98,7.89,1.02,3.13,.05,5.81-.33,7.86-.77-.22-.26-.44-.52-.66-.78-1.92,.55-5.1,1.14-8.75,.25-.99-.24-1.88-.56-2.66-.91,.35-1.56,.67-3.21,.94-4.94,.53-3.42,.79-6.6,.88-9.5,.61,.08,2.37,.23,4.12-.81,.99-.58,1.6-1.32,1.94-1.81Z"/>
    </g>
  </g>
  <g id="N_B_Left_Arm" data-name="N B Left Arm">
    <g>
      <path class="cls-5" d="M100.05,70.72c1.01-.72,2.42-.63,3.38-.18,1.26,.59,1.79,1.83,2.29,2.99,.84,1.96,.36,2.59,1.24,3.66,.5,.61,.71,.46,2.51,1.67,1.52,1.02,2.28,1.52,2.62,2.11,.78,1.33,.69,3.55-.66,4.97-1.51,1.58-3.98,1.3-5.38,.69-1.67-.72-2.49-2.16-3.08-3.19-1.03-1.81-.57-2.32-1.63-4.41-1.07-2.11-1.86-1.99-2.31-3.54-.39-1.32-.5-3.69,1.02-4.78Z"/>
      <path class="cls-2" d="M111.67,80.42c-1.21-1.19-3.57-1.46-4.34-.38-.53,.75-.11,1.9,.02,2.21-.29,0-1.14,.01-1.76,.61-.91,.88-.79,2.51-.15,3.34,1.16,1.5,4.85,1.35,6.39-.77,1-1.39,1.17-3.7-.16-5.01Z"/>
      <path class="cls-1" d="M100.05,70.72c1.01-.72,2.42-.63,3.38-.18,1.26,.59,1.79,1.83,2.29,2.99,.84,1.96,.36,2.59,1.24,3.66,.5,.61,.71,.46,2.51,1.67,1.52,1.02,2.28,1.52,2.62,2.11,.78,1.33,.69,3.55-.66,4.97-1.51,1.58-3.98,1.3-5.38,.69-1.67-.72-2.49-2.16-3.08-3.19-1.03-1.81-.57-2.32-1.63-4.41-1.07-2.11-1.86-1.99-2.31-3.54-.39-1.32-.5-3.69,1.02-4.78Z"/>
      <path class="cls-3" d="M106.65,76.74c.13-.88,.26-1.76,.39-2.64-.76,.01-2.65,.15-4.56,1.43-1.95,1.3-2.81,3.04-3.1,3.74,.83,.33,1.66,.65,2.49,.98,.2-.48,.73-1.55,1.91-2.41,1.18-.87,2.37-1.05,2.89-1.09Z"/>
      <path class="cls-3" d="M101.86,80.25c.05,.62,.24,1.79,1.01,2.98,.51,.8,1.11,1.34,1.54,1.67,.04-.25,.22-1.31,1.18-2.03,.58-.44,1.18-.55,1.49-.59-.05-.22-.23-1.06,.23-1.89,.47-.84,1.4-1.35,2.43-1.34-1.03-.76-2.06-1.53-3.08-2.29-.51,.05-1.7,.23-2.89,1.09-1.18,.86-1.71,1.94-1.91,2.41Z"/>
      <path class="cls-21" d="M99.77,70c.45,1.18,1.09,2.68,1.99,4.33,.64,1.16,1.25,2.07,2.45,3.83,3.1,4.56,3.82,5,4.48,5.23,.67,.24,1.97,.51,3.95-.28-.08,.26-.96,2.98-3.5,3.73-2.69,.79-4.97-1.31-5.35-1.66-.98-.9-.83-1.32-2.76-5.25-1.51-3.08-1.83-3.3-2.06-4.45-.42-2.2,.22-4.18,.81-5.47Z"/>
    </g>
    <g>
      <path class="cls-5" d="M244.05,70.72c1.01-.72,2.42-.63,3.38-.18,1.26,.59,1.79,1.83,2.29,2.99,.84,1.96,.36,2.59,1.24,3.66,.5,.61,.71,.46,2.51,1.67,1.52,1.02,2.28,1.52,2.62,2.11,.78,1.33,.69,3.55-.66,4.97-1.51,1.58-3.98,1.3-5.38,.69-1.67-.72-2.49-2.16-3.08-3.19-1.03-1.81-.57-2.32-1.63-4.41-1.07-2.11-1.86-1.99-2.31-3.54-.39-1.32-.5-3.69,1.02-4.78Z"/>
      <path class="cls-2" d="M255.67,80.42c-1.21-1.19-3.57-1.46-4.34-.38-.53,.75-.11,1.9,.02,2.21-.29,0-1.14,.01-1.76,.61-.91,.88-.79,2.51-.15,3.34,1.16,1.5,4.85,1.35,6.39-.77,1-1.39,1.17-3.7-.16-5.01Z"/>
      <path class="cls-1" d="M244.05,70.72c1.01-.72,2.42-.63,3.38-.18,1.26,.59,1.79,1.83,2.29,2.99,.84,1.96,.36,2.59,1.24,3.66,.5,.61,.71,.46,2.51,1.67,1.52,1.02,2.28,1.52,2.62,2.11,.78,1.33,.69,3.55-.66,4.97-1.51,1.58-3.98,1.3-5.38,.69-1.67-.72-2.49-2.16-3.08-3.19-1.03-1.81-.57-2.32-1.63-4.41-1.07-2.11-1.86-1.99-2.31-3.54-.39-1.32-.5-3.69,1.02-4.78Z"/>
      <path class="cls-3" d="M250.65,76.74c.13-.88,.26-1.76,.39-2.64-.76,.01-2.65,.15-4.56,1.43-1.95,1.3-2.81,3.04-3.1,3.74,.83,.33,1.66,.65,2.49,.98,.2-.48,.73-1.55,1.91-2.41,1.18-.87,2.37-1.05,2.89-1.09Z"/>
      <path class="cls-3" d="M245.86,80.25c.05,.62,.24,1.79,1.01,2.98,.51,.8,1.11,1.34,1.54,1.67,.04-.25,.22-1.31,1.18-2.03,.58-.44,1.18-.55,1.49-.59-.05-.22-.23-1.06,.23-1.89,.47-.84,1.4-1.35,2.43-1.34-1.03-.76-2.06-1.53-3.08-2.29-.51,.05-1.7,.23-2.89,1.09-1.18,.86-1.71,1.94-1.91,2.41Z"/>
      <path class="cls-21" d="M243.77,70c.45,1.18,1.09,2.68,1.99,4.33,.64,1.16,1.25,2.07,2.45,3.83,3.1,4.56,3.82,5,4.48,5.23,.67,.24,1.97,.51,3.95-.28-.08,.26-.96,2.98-3.5,3.73-2.69,.79-4.97-1.31-5.35-1.66-.98-.9-.83-1.32-2.76-5.25-1.51-3.08-1.83-3.3-2.06-4.45-.42-2.2,.22-4.18,.81-5.47Z"/>
    </g>
  </g>
  <g id="N_F_Left_Arm" data-name="N F Left Arm">
    <g>
      <path class="cls-5" d="M39.96,71.16c.41-.26,1.97-1.15,3.3-.56,1.38,.62,2.18,2.73,1.5,5-.38,.35-.9,.87-1.44,1.56-.62,.8-1.16,1.5-1.44,2.5-.22,.78-.17,1.36-.07,2.49,.09,1.07,.33,2.36,.85,3.63,.44,1.09,.71,1.37,.97,2.41,.22,.89,.45,1.83,.01,2.37-.4,.49-1.17,.43-1.67,.19-.86-.42-1.08-1.47-1.11-1.58,.12,.25,.38,.88,.3,1.69,0,.1-.16,1.48-1,1.92-.83,.44-1.8-.31-2.56-.91-1.46-1.13-2.09-2.65-2.22-2.95-.66-1.62-.61-3.01-.55-4.26,.03-.6,.1-1.43,1.08-5.12,.9-3.39,1.36-4.65,2.08-5.99,.72-1.34,1.26-1.95,1.95-2.38Z"/>
      <path class="cls-3" d="M42.16,79.69c-.49-.31-1.88-1.09-3.75-.94-1.14,.1-2,.5-2.49,.79-.37,.96-.74,2.21-.94,3.7-.25,1.9-.13,3.52,.05,4.7,.49-.62,1.45-1.67,3-2.44,1.77-.89,3.4-.96,4.21-.93-.19-.55-.42-1.38-.44-2.41-.02-1.05,.17-1.9,.35-2.46Z"/>
      <path class="cls-2" d="M35.4,88.91c.3-.62,1.12-2.15,2.78-3.16,1.84-1.12,3.56-.92,4.15-.82,.4,.5,1.94,2.52,1.56,4.64-.06,.32-.16,.86-.54,1.14-.6,.44-1.67,.06-2.66-1.01,.08,.17,.37,.82,.21,1.64-.03,.17-.15,.8-.55,1.15-.98,.84-2.85-.61-3.06-.77-1.1-.87-1.63-2.07-1.89-2.81Z"/>
      <path class="cls-3" d="M43.72,79.04c-.55-.45-2.07-1.57-4.33-1.75-2.61-.21-4.49,.96-5.04,1.33,.14,.9,.27,1.8,.41,2.7,.49-.35,2.11-1.42,4.34-1.27,1.37,.09,2.39,.61,2.94,.94l1.69-1.96Z"/>
      <path class="cls-21" d="M39.71,71.1c.35-.18,1.21-.58,2.35-.5,1.03,.08,1.77,.5,2.1,.72-1.58,1.52-2.64,3-3.32,4.09-.6,.97-1.37,2.24-1.9,4.1-.17,.6-.31,1.26-.4,1.98-.22,1.73-.65,5.22,1.01,7.25,.52,.63,1.34,1.25,1.36,2.3,.01,.51-.17,1.12-.57,1.45-.58,.48-1.36,.18-1.78,.02-1.82-.7-2.78-2.71-3-3.2-1.04-2.33-.77-4.53-.58-6.08,.2-1.61,.61-2.89,.92-3.73l-.48,.28c.02-.25,.04-.5,.06-.75,.27-.17,.54-.34,.81-.51,.17-.43,.34-.85,.51-1.28,.9-2.19,1.88-4.24,2.89-6.15Z"/>
    </g>
  </g>
  <g id="N_B_head" data-name="N B head">
    <g>
      <path class="cls-20" d="M205.46,46.96c2.08,1.87,4.76,2.45,6.54,2.84,1.31,.28,3.99,.83,7.26,.05,2.06-.5,5.35-1.29,6.75-4.05,.26-.51,1.39-2.75,.72-4.74-.15-.46-.43-.99-.38-1.79,.05-.84,.4-1.17,.64-2.17,.14-.6,.17-1.09,.15-2.03-.11-4.86-.16-7.29-.87-8.75-1.52-3.14-4.74-4.43-6.08-4.97-1.36-.55-6.07-2.18-10.6,.16-4.6,2.38-5.87,7.25-6.61,10.1-.31,1.19-2.76,10.65,2.48,15.37Z"/>
      <path class="cls-18" d="M214.11,16.29c-4.46,.06-7.65,1.81-8.88,2.5-1.33,.75-2.51,1.71-4.88,3.62-1.98,1.6-3.55,3.01-4.62,4,.18,.33,.74,1.24,1.88,1.75,1.69,.75,3.28-.01,3.5-.12-.92,1-2.31,2.28-4.25,3.38-1.29,.73-2.5,1.19-3.5,1.5,.16,.41,.82,1.9,2.5,2.75,2.14,1.09,4.2,.25,4.5,.12-.33,.59-.84,1.36-1.62,2.12-.92,.9-1.84,1.43-2.5,1.75,.36,.34,1.25,1.08,2.62,1.38,1.25,.27,2.27,.02,2.75-.12,0,.45-.04,1.68-.88,2.88-1.1,1.57-2.76,1.93-3.12,2,.52,.25,1.59,.68,3,.62,1.29-.05,2.25-.48,2.75-.75-.27,.88-.82,2.27-2,3.62-.69,.8-1.41,1.36-2,1.75,.96-.08,2.28-.29,3.75-.88,1.15-.46,2.07-1.02,2.75-1.5,.14,.48,.36,1.53,0,2.75-.2,.67-.5,1.17-.75,1.5,.69-.31,1.66-.85,2.62-1.75,.78-.73,1.31-1.47,1.66-2.05,.09,.75,.27,1.69,.63,2.71,.28,.79,.61,1.46,.92,2,.39-.34,.95-.91,1.42-1.75,.48-.86,.67-1.65,.75-2.17,.12,.48,.34,1.1,.75,1.75,.79,1.26,1.84,1.94,2.42,2.25,.2-.3,.61-1.01,.67-2,.06-1.06-.32-1.85-.5-2.17,.62,.48,1.31,1.08,2,1.83,.57,.61,1.03,1.21,1.42,1.75l.33-3.75c.42,.57,.99,1.24,1.75,1.92,.81,.72,1.6,1.23,2.25,1.58-.18-.79-.35-1.63-.5-2.5-.13-.78-.24-1.53-.33-2.25,.47,.49,1.29,1.22,2.5,1.75,1.54,.68,2.93,.71,3.67,.67-.45-.24-1.56-.89-2.33-2.25-.78-1.36-.78-2.66-.75-3.17,.5,.21,1.25,.45,2.17,.5,1.66,.08,2.93-.51,3.5-.83-.6-.12-1.73-.44-2.83-1.33-1.46-1.18-1.99-2.66-2.17-3.25,.37,.19,.97,.44,1.75,.5,1.41,.1,2.46-.51,2.83-.75-.56-.22-1.53-.7-2.42-1.67-1.13-1.24-1.48-2.59-1.6-3.19,.31,.22,.82,.54,1.52,.69,1.21,.28,2.21-.09,2.58-.25-.74-.39-1.87-1.11-2.92-2.33-.87-1.02-1.38-2.03-1.67-2.75,.64,.28,1.54,.6,2.67,.75,1.28,.17,2.35,.05,3.08-.08-1.11-.49-2.57-1.36-3.33-2.92-.7-1.43-.15-2.3-.42-3.75-.59-3.27-4.35-5.18-6.71-6.38-3.89-1.98-7.42-2.01-8.38-2Z"/>
      <g>
        <g>
          <path class="cls-6" d="M212.87,23.73l.94-2.25c-.52-.08-1.04-.17-1.56-.25,.04-.9,.08-1.79,.12-2.69h-1.5c.01-.51-.03-1.58-.62-2.75-.6-1.18-1.45-1.84-1.88-2.12-.33,.27-.67,.54-1,.81-.6-1-1.21-2-1.81-3l-1.12,.38c-.94-.55-2.34-1.26-4.12-1.81-2.27-.7-5.7-1.75-9.5-.38-3.92,1.42-5.9,4.57-6.5,5.62-2.22,3.92-1.63,7.72-1.44,8.75,.05-.81,.24-2.08,.94-3.44,.38-.74,.81-1.32,1.19-1.75-.1,.75-.21,1.5-.31,2.25,.28-.94,.89-2.55,2.25-4.12,.31-.36,1.94-2.2,4.62-3.19,4.77-1.76,9.18,.53,9.94,.94,.02,.5,.04,1,.06,1.5,1.48,.6,2.96,1.21,4.44,1.81-.08,.42-.17,.83-.25,1.25,.7,.26,1.87,.79,3,1.88,1.06,1.02,1.64,2.08,1.94,2.75,.73-.06,1.46-.12,2.19-.19Z"/>
          <path class="cls-8" d="M211.89,23.82c-.59-1.63-1.75-4.21-4.02-6.77-.61-.69-3.28-3.61-7.88-5.56-3.76-1.59-7.14-1.83-9.19-1.81"/>
          <path class="cls-26" d="M201.87,14.35c-1.54-.91-3.82-2.03-6.75-2.72-2.42-.57-4.55-.67-6.16-.62-.91,.57-2.1,1.48-3.19,2.88-2.14,2.74-2.53,5.66-2.62,6.97,.18-.42,.45-.93,.83-1.47,.34-.48,.68-.86,.99-1.16,.01,.21,.02,.42,.03,.63,.66-1.21,1.89-3,4-4.32,5.65-3.55,12.28-.47,12.88-.19Z"/>
        </g>
        <path class="cls-17" d="M201.25,29.62c-1.76,1.37-5.46-.99-7.25-2.25-1.14-.81-4.05-3.18-4.25-6.75-.02-.44-.17-3.62,1.75-4.75,1.15-.68,2.53-.32,3.88,.12,5.21,1.72,8.92,4.41,9.38,4.75,9.18,6.78,8.39,6.61,9.62,7.12,2.34,.98,8.16,3.41,13.12,1.25,1.19-.51,3.22-1.68,5.88-1.38,.75,.09,2.17,.27,2.62,1.25,.45,.98-.25,2.29-1,3-1.31,1.25-3.26,1.17-4.12,1.12-12.09-.66-16-1.62-16-1.62-3.47-.85-7.8-2.02-12.75-3.62-.1,.66-.34,1.33-.88,1.75Z"/>
        <path class="cls-17" d="M201.38,18.63c.56-1.82,1.18-3.27,1.67-4.29,1.79-3.73,3.02-4.33,3.41-4.5,.87-.38,1.62-.34,2.41-.31,2.62,.11,4.84,1.41,7.59,3.06,1.26,.76,2.24,1.44,3.75,1.5,.75,.03,.69-.13,2.03-.25,1-.09,2.77-.15,4.75,.38,1.41,.38,1.82,.75,1.94,.88,.71,.71,.85,1.67,.91,2.28,.32,3.34-.24,10.43-.27,10.86-2.09,1.17-3.96,1.54-5.1,1.68-2.51,.3-4.47-.2-6.09-.61-1.99-.51-3.57-1.2-4.65-1.75-2.43-2.04-5.14-4.13-8.14-6.18-1.42-.98-2.82-1.88-4.2-2.73Z"/>
        <path class="cls-14" d="M215.15,14.37c.31,.31,1.07,.96,2.25,1.25,1.12,.27,2.04,.08,2.46-.04"/>
        <path class="cls-26" d="M201.73,28.37c-.19,.37-.47,.92-.88,1.19-.46,.3-1.09,.22-2.32-.24-1.13-.43-2.53-.97-4.24-2.32-1.16-.92-1.84-1.71-2.48-2.46-1.19-1.39-1.35-1.95-1.4-2.36-.09-.71,.04-1.81,.75-2.31,.78-.55,1.92-.17,2.52,.04,4.22,1.52,10.15,5.28,14.17,7.33,1.73,.89,3.8,1.93,6.75,2.75,3.64,1.01,6.61,1.11,8.88,1.19,3.06,.1,4.59,.16,5.91-.41,.28-.12,1.2-.4,3.05-.95,.6-.18,1.44-.42,2.2-.05,.16,.08,.52,.26,.6,.61,.02,.09,.07,.35-.29,.86-.66,.93-1.67,1.25-1.78,1.28-.97,.29-1.82,.11-2.01,.07-2.59-.53-5.08,.3-13.4-1.1-3.93-.66-9.33-1.85-15.66-4.09-.07,.24-.18,.59-.38,.97Z"/>
        <path class="cls-26" d="M228.33,15.25c-2.58-1.17-3.91-1.31-4.66-1.19-.11,.02-.93,.16-2.12,.36-.52,.09-.78,.13-.88,.14-1.27,.18-2.57-.56-4.5-1.69-2.88-1.68-3.03-1.79-3.69-2.06-.51-.21-1.68-.67-3.25-.88-1.04-.14-1.67-.21-2.38,.06-1.22,.47-1.79,1.62-1.99,2.07-.54,.93-1.1,1.97-1.64,3.12-.52,1.12-.95,2.19-1.31,3.19,.56,.45,1.21,.91,1.94,1.38,.66,.41,1.29,.77,1.88,1.06,.46-1.86,.99-3.48,1.5-4.81,1.26-3.31,1.91-3.72,2.38-3.88,.85-.28,1.76,.19,3.56,1.12,2.4,1.24,2.28,1.78,3.74,2.22,1.61,.5,3.16,.28,4.62,.07,1.36-.19,1.54-.4,2.71-.54,1.7-.2,3.13,.02,4.09,.25Z"/>
        <path class="cls-22" d="M224.67,15.29c.27-.09,1.65,.56,2.46,1.42,.68,.72,.76,1.38,.79,1.92,.14,2.17-.35,4.43-.63,4.42-.21,0,.15-1.26-.48-3.46-.26-.89-.47-1.66-1.11-2.67-.64-1.01-1.25-1.55-1.03-1.62Z"/>
        <line class="cls-16" x1="202.12" y1="27.87" x2="195.06" y2="25.44"/>
        <g>
          <path class="cls-6" d="M201.38,18.63c3.18,1.65,7.55,3.52,12.97,4.74,6.2,1.4,11.58,1.45,15.44,1.19,.17,.25,.51,.81,.56,1.59,.07,1.2-.62,2.03-.78,2.22-2,1.04-3.78,1.4-4.97,1.53-2.38,.27-4.22-.14-5.86-.51-1.95-.44-3.61-1.07-4.92-1.68-1.58-1.31-3.27-2.64-5.05-3.97-2.53-1.89-5.01-3.59-7.39-5.11Z"/>
          <path class="cls-9" d="M216.15,25.66c1.89,.39,4.09,.72,6.54,.88,2.76,.17,5.23,.08,7.33-.12"/>
          <path class="cls-9" d="M223.09,28.12c-1.71,0-3.69-.11-5.88-.46-1.72-.27-3.27-.64-4.62-1.04"/>
        </g>
      </g>
      <path class="cls-26" d="M202.73,29.08c2.13,.71,4.91,1.56,8.21,2.38,2.09,.51,4.69,1.15,8.17,1.67,2.32,.34,5.36,.69,8.96,.79,.18,.28,.36,.56,.54,.83-.07-.06-.7-.54-1.21-.33-.55,.22-.89,1.24-.38,2.33-3.06-.1-6.46-.37-10.12-.92-3.16-.47-6.06-1.08-8.67-1.74-.17-.01-.46-.02-.77,.14,0,0-.37,.18-.62,.61-.79,1.31-.23,4.41-.23,4.41,.42,2.34,.61,3.52,.96,4.17,1.24,2.33,3.31,3.42,4.38,3.96,4.54,2.32,9.29,1.04,10.71,.6,.02,.97,.04,1.94,.06,2.91l-1.97-2.06c-.12-.03-.36-.08-.66-.03-.29,.05-.49,.18-.59,.25-.15,.61-.29,1.23-.44,1.84l-2.34-2.06c-.13,.02-.41,.07-.69,.28-.26,.2-.39,.45-.44,.56,.14,.43,.27,.99,.31,1.66,.02,.42,0,.8-.03,1.12-.27-.18-.6-.44-.91-.81-.65-.78-.87-1.6-.95-2.05-.02-.06-.16-.51-.59-.67-.42-.16-.93,.03-1.22,.47-.02,.32-.08,.72-.23,1.16-.23,.69-.57,1.18-.83,1.49-.3-1.12-.6-2.23-.9-3.35-.06-.09-.22-.3-.51-.4-.51-.18-.96,.16-1,.19-.58,.64-1.17,1.27-1.75,1.91,.04-.11,.32-1.08-.28-1.91-.37-.5-.87-.69-1.06-.75-.44,.32-.98,.68-1.62,1-.52,.26-1,.45-1.44,.59,.58-1.21,1.04-1.98,1.41-2.5,.11-.16,.38-.54,.39-1.04,0-.12,0-.63-.36-.9-.24-.18-.51-.17-.71-.17-.54,.02-.78,.28-1.25,.46-.31,.12-.77,.22-1.42,.12,.25-.26,2.48-2.61,1.88-4.42-.08-.23-.25-.76-.71-.96-.53-.23-.97,.19-1.83,.25-.4,.03-1,0-1.75-.38,1.06-1.19,1.85-2.06,2.42-2.67,.39-.43,.78-.84,.71-1.33-.09-.62-.84-.98-1.08-1.08-.2,.14-1.47,.98-3.12,.58-1.58-.38-2.33-1.62-2.46-1.83,.6-.19,1.26-.45,1.96-.79,1.09-.53,1.97-1.13,2.67-1.67,.21,.04,1.25,.24,2.25-.42,.78-.51,1.08-1.25,1.17-1.5Z"/>
    </g>
  </g>
</svg>